<svg width="32" height="32" viewBox="0 0 32 32" fill="none" xmlns="http://www.w3.org/2000/svg">
<rect width="32" height="32" rx="16" fill="white"/>
<path d="M23.444 13.336L16.1833 20.8125L14.6144 22.4279C14.2438 22.8095 13.7577 23 13.2721 23C12.7859 23 12.3003 22.8095 11.9292 22.4279L8.55595 18.9533C7.81468 18.1901 7.81468 16.9538 8.55595 16.1901C9.29624 15.4269 10.4985 15.4269 11.2397 16.1901L13.2721 18.2826L20.7603 10.5728C21.5015 9.80907 22.7038 9.80907 23.444 10.5728C24.1853 11.336 24.1853 12.5738 23.444 13.336Z" fill="#00C48C"/>
<path d="M16.1835 20.8125L23.4442 13.336C24.1854 12.5738 24.1854 11.336 23.4442 10.5728C22.7039 9.80907 21.5017 9.80907 20.7604 10.5728C19.5872 12.1477 10.0002 25.5 14.6146 22.4279L16.1835 20.8125Z" fill="#00A88F"/>
</svg>
