<svg width="18" height="18" viewBox="0 0 18 18" fill="none" xmlns="http://www.w3.org/2000/svg">
<path fill-rule="evenodd" clip-rule="evenodd" d="M7.38503 0.750061C7.38503 0.404883 7.66485 0.125061 8.01003 0.125061H17.25C17.5952 0.125061 17.875 0.404883 17.875 0.750061V11.31C17.875 11.6552 17.5952 11.935 17.25 11.935H13.915V11.9701C13.915 15.2313 11.2712 17.875 8.00998 17.875C4.74875 17.875 2.105 15.2313 2.105 11.9701V9.87958C0.968153 9.59964 0.125 8.57331 0.125 7.35005V4.71006C0.125 3.27136 1.29129 2.10507 2.72999 2.10507C4.16869 2.10507 5.33498 3.27136 5.33498 4.71006V7.35005C5.33498 8.5733 4.49184 9.59962 3.355 9.87958V11.9701C3.355 14.5409 5.43911 16.625 8.00998 16.625C10.5808 16.625 12.665 14.5409 12.665 11.9701V11.935H8.01003C7.66485 11.935 7.38503 11.6552 7.38503 11.31C7.38503 10.9648 7.66485 10.685 8.01003 10.685H16.625V1.37506H8.63503V2.41022C9.10251 2.21369 9.61606 2.10508 10.155 2.10508C12.3227 2.10508 14.08 3.86235 14.08 6.03006C14.08 8.19777 12.3227 9.95505 10.155 9.95505C7.98726 9.95505 6.22999 8.19777 6.22999 6.03006C6.22999 4.94322 6.67173 3.95955 7.38547 3.24881C7.38517 3.24093 7.38503 3.23301 7.38503 3.22505V0.750061ZM10.155 3.35508C8.67762 3.35508 7.47999 4.55271 7.47999 6.03006C7.47999 7.50742 8.67762 8.70505 10.155 8.70505C11.6323 8.70505 12.83 7.50742 12.83 6.03006C12.83 4.55271 11.6323 3.35508 10.155 3.35508ZM11.85 5.53999C12.1261 5.33288 12.1821 4.94113 11.975 4.66499C11.7678 4.38885 11.3761 4.33288 11.1 4.53999L9.77996 5.52999C9.50382 5.73709 9.44785 6.12884 9.65496 6.40499C9.86207 6.68113 10.2538 6.73709 10.53 6.52999L11.85 5.53999ZM1.375 4.71006C1.375 3.96172 1.98165 3.35507 2.72999 3.35507C3.47833 3.35507 4.08498 3.96172 4.08498 4.71006V7.35005C4.08498 8.09839 3.47833 8.70504 2.72999 8.70504C1.98165 8.70504 1.375 8.09839 1.375 7.35005V4.71006Z" fill="#7B8497"/>
</svg>
