<svg width="37" height="34" viewBox="0 0 37 34" fill="none" xmlns="http://www.w3.org/2000/svg">
<path d="M19.928 0.339844H16.7321C7.67353 0.339844 0.330078 7.68329 0.330078 16.7419V17.5392C0.330078 26.5977 7.67353 33.9412 16.7321 33.9412H19.928C28.9866 33.9412 36.3301 26.5977 36.3301 17.5392V16.7419C36.3301 7.68329 28.9866 0.339844 19.928 0.339844Z" fill="#F8D158"/>
<path d="M12.7321 17.5528C12.7321 18.9906 11.9143 20.1489 10.9058 20.1489C9.89725 20.1489 9.07275 18.9906 9.07275 17.5528C9.07275 16.115 9.89043 14.9497 10.9058 14.9497C11.9211 14.9497 12.7321 16.1218 12.7321 17.5528Z" fill="#333333"/>
<path d="M27.5942 17.5528C27.5942 18.9906 26.7766 20.1489 25.7612 20.1489C24.7459 20.1489 23.9282 18.9906 23.9282 17.5528C23.9282 16.115 24.7527 14.9497 25.7612 14.9497C26.7697 14.9497 27.5942 16.1218 27.5942 17.5528Z" fill="#333333"/>
<path d="M23.6689 27.4065C24.1322 27.5019 24.4526 26.8136 24.146 26.357C23.5371 25.3618 22.6829 24.5396 21.6652 23.9692C20.6474 23.3988 19.4999 23.0991 18.3332 23.0991C17.1665 23.0991 16.0193 23.3988 15.0016 23.9692C13.9838 24.5396 13.1297 25.3618 12.5207 26.357C12.2141 26.8136 12.5209 27.5019 12.9979 27.4065C16.5223 26.7251 20.1444 26.7251 23.6689 27.4065Z" fill="#333333"/>
<path d="M29.0795 12.8986H28.991C28.096 12.7437 27.2425 12.4067 26.4829 11.9086C25.7234 11.4104 25.0741 10.7617 24.5754 10.0025C24.5356 9.93766 24.5088 9.8656 24.4969 9.79043C24.4849 9.71525 24.4881 9.63837 24.5058 9.56434C24.5236 9.4903 24.5556 9.42049 24.6003 9.35887C24.645 9.29726 24.7015 9.24514 24.7664 9.20532C24.8312 9.1655 24.9031 9.13876 24.9783 9.1268C25.0535 9.11483 25.1302 9.1179 25.2042 9.13561C25.2783 9.15333 25.3482 9.18541 25.4099 9.23011C25.4715 9.27481 25.5238 9.3311 25.5636 9.39597C26.405 10.6288 27.7017 11.477 29.1684 11.7539C29.3126 11.7762 29.4431 11.8521 29.5337 11.9665C29.6244 12.0808 29.6684 12.2251 29.6572 12.3706C29.646 12.5161 29.5802 12.6521 29.4732 12.7512C29.3661 12.8504 29.2255 12.9054 29.0795 12.9054V12.8986Z" fill="#333333"/>
<path d="M7.59421 12.8985C7.44829 12.8985 7.30766 12.8435 7.20059 12.7443C7.09352 12.6452 7.02779 12.5092 7.01659 12.3637C7.0054 12.2182 7.04972 12.0739 7.14037 11.9596C7.23102 11.8452 7.3615 11.7693 7.50571 11.747C8.97238 11.4701 10.2691 10.622 11.1105 9.38924C11.1909 9.25822 11.32 9.1645 11.4695 9.12872C11.619 9.09293 11.7767 9.118 11.9077 9.19842C12.0388 9.27885 12.1325 9.40792 12.1683 9.55744C12.204 9.70696 12.1788 9.86462 12.0984 9.99564C11.5997 10.7548 10.9507 11.4035 10.1912 11.9017C9.43163 12.3998 8.57774 12.7368 7.68272 12.8917L7.59421 12.8985Z" fill="#333333"/>
</svg>
