<svg width="20" height="20" viewBox="0 0 20 20" fill="none" xmlns="http://www.w3.org/2000/svg">
<g clip-path="url(#clip0_2507_2449)">
<path d="M19.9653 6.0434C19.9321 5.92235 19.8757 5.80912 19.7992 5.7102C19.7228 5.61127 19.6279 5.52859 19.5199 5.46687C19.4119 5.40516 19.293 5.36562 19.1699 5.35051C19.0469 5.33541 18.9221 5.34504 18.8027 5.37885L15.9216 6.19399L13.4006 3.89599C13.392 3.88802 13.3825 3.88085 13.3731 3.87367C13.2646 3.76428 13.1376 3.67549 12.9981 3.61152L12.1971 3.24499C12.0666 3.18613 11.9274 3.14951 11.7852 3.13662C11.7538 3.12937 11.722 3.12378 11.69 3.11989L7.83814 2.67128C7.64838 2.64963 7.45661 2.68687 7.28817 2.77807C7.11974 2.86927 6.98257 3.01013 6.89482 3.18204L5.34541 6.22188C5.23054 6.44716 5.20866 6.70946 5.28458 6.95109C5.3605 7.19272 5.52801 7.39388 5.75025 7.51033C5.88584 7.582 6.03677 7.61867 6.18968 7.6171C6.36165 7.61593 6.53003 7.56714 6.67662 7.476C6.8232 7.38485 6.94242 7.25482 7.02138 7.09997L8.27207 4.64658L10.0722 4.85614L8.5134 8.36212C8.43513 8.42769 8.36609 8.50383 8.30823 8.58842L5.80921 12.233H1.13741C0.8351 12.233 0.545175 12.3548 0.331412 12.5714C0.117649 12.7881 -0.00244141 13.082 -0.00244141 13.3884C-0.00244141 13.6948 0.117649 13.9887 0.331412 14.2054C0.545175 14.4221 0.8351 14.5438 1.13741 14.5438H6.40429C6.58965 14.5449 6.77247 14.5001 6.93686 14.4133C7.10126 14.3265 7.24226 14.2004 7.34761 14.0458L9.47009 10.943L12.4353 13.4569L12.506 18.4251C12.5105 18.7269 12.6313 19.0149 12.8425 19.2277C13.0537 19.4404 13.3387 19.561 13.6364 19.5637H13.6529C13.9552 19.5591 14.2433 19.4331 14.4539 19.2133C14.6645 18.9935 14.7805 18.698 14.7763 18.3916L14.6977 12.8936C14.6953 12.7274 14.6575 12.5637 14.587 12.4137C14.5164 12.2636 14.4147 12.1308 14.2889 12.0243L11.6594 9.7932L13.2151 6.29678L15.0459 7.97009C15.2187 8.1273 15.4426 8.2144 15.6748 8.21471C15.7604 8.21486 15.8455 8.20307 15.9279 8.17965L19.3082 7.22348C19.4279 7.18997 19.5399 7.13282 19.6378 7.05531C19.7357 6.9778 19.8175 6.88146 19.8786 6.77181C19.9397 6.66217 19.9787 6.54137 19.9936 6.41637C20.0085 6.29137 19.9989 6.16462 19.9653 6.0434Z" fill="#45D3F2"/>
<path d="M14.0712 3.66534C15.0698 3.66534 15.8793 2.84482 15.8793 1.83267C15.8793 0.820514 15.0698 0 14.0712 0C13.0727 0 12.2632 0.820514 12.2632 1.83267C12.2632 2.84482 13.0727 3.66534 14.0712 3.66534Z" fill="#45D3F2"/>
</g>
<defs>
<clipPath id="clip0_2507_2449">
<rect width="20" height="20" fill="white"/>
</clipPath>
</defs>
</svg>
