<svg width="15" height="20" viewBox="0 0 15 20" fill="none" xmlns="http://www.w3.org/2000/svg">
<path d="M7.5 3.89105C8.60457 3.89105 9.5 3.02001 9.5 1.94552C9.5 0.87104 8.60457 0 7.5 0C6.39543 0 5.5 0.87104 5.5 1.94552C5.5 3.02001 6.39543 3.89105 7.5 3.89105Z" fill="#F96175"/>
<path d="M14.5545 11.5699V10.641C14.5545 10.436 14.3882 10.2697 14.1832 10.2697C13.9781 10.2697 13.8119 10.436 13.8119 10.641V11.5699H13.6634V9.91867C13.6634 9.71361 13.4971 9.54738 13.2921 9.54738C13.087 9.54738 12.9208 9.71361 12.9208 9.91867V11.5699H12.2397L11.4009 6.91365C11.0476 4.91275 9.50786 4.47754 8.08265 4.47754H6.99743C5.57222 4.47754 4.03244 4.91275 3.67919 6.91365L2.84193 11.5699H2.0792V9.91866C2.0792 9.71361 1.91297 9.54738 1.70792 9.54738C1.50286 9.54738 1.33663 9.71361 1.33663 9.91866V11.5699H1.18812V10.641C1.18812 10.436 1.02189 10.2697 0.816833 10.2697C0.611776 10.2697 0.445546 10.436 0.445546 10.641V11.5699H0V12.2923H0.445546V13.2212C0.445546 13.4263 0.611776 13.5925 0.816833 13.5925C1.02189 13.5925 1.18812 13.4263 1.18812 13.2212V12.2923H1.33663V13.9436C1.33663 14.1486 1.50286 14.3149 1.70792 14.3149C1.91297 14.3149 2.0792 14.1486 2.0792 13.9436V12.2923H2.8605C2.92864 12.4478 3.04297 12.58 3.18882 12.6719C3.33468 12.7638 3.50543 12.8113 3.67919 12.8083C3.8493 12.808 4.01557 12.759 4.15711 12.6672C4.29866 12.5754 4.40918 12.445 4.4748 12.2923L5.27466 12.2913L4.97498 18.8682C4.9527 19.4662 5.4428 19.9685 6.05754 19.9899C6.07133 19.9899 6.08963 19.9899 6.10316 19.9899C6.69987 19.9899 7.19607 19.5514 7.21702 18.9657L7.43581 13.1449H7.64161L7.85802 18.9657C7.86891 19.245 7.99114 19.5091 8.19882 19.7022C8.4065 19.8952 8.6833 20.0021 8.97056 20C8.98408 20 8.99708 19.9948 9.0114 19.9943C9.62615 19.9726 10.0879 19.468 10.0659 18.8698L9.7301 12.2913H10.5687C10.6408 12.4445 10.7566 12.5743 10.9024 12.6654C11.0481 12.7566 11.2176 12.8051 11.3908 12.8054C11.4457 12.8054 11.5004 12.8009 11.5544 12.7917C11.6978 12.7666 11.8328 12.7079 11.9477 12.6207C12.0625 12.5335 12.1539 12.4205 12.2138 12.2913H12.9203V13.9425C12.9203 14.1476 13.0865 14.3138 13.2915 14.3138C13.4966 14.3138 13.6628 14.1476 13.6628 13.9425V12.2923H13.8113V13.2212C13.8113 13.4263 13.9776 13.5925 14.1826 13.5925C14.3877 13.5925 14.5539 13.4263 14.5539 13.2212V12.2923H14.9995V11.5699H14.5545ZM4.63101 11.5699C4.63101 11.5699 5 7.99898 5.27466 7.99898C5.54932 7.99898 5.27466 9.5 5.27466 11.5699H4.63101ZM9.7301 7.99898C10 8 10.4069 11.5699 10.4069 11.5699H9.7301C9.7301 10.2697 9.4602 7.99795 9.7301 7.99898Z" fill="#F96175"/>
</svg>
